---
title: 群星.1986-回顾篇【歌林】【WAV+CUE】
date: 2023-03-15 11:01:34
categories: WAV车载音乐、镜像
tags: 华语中文
---
# 群星.1986-回顾篇【歌林】【WAV+CUE】

REM GENRE POP
REM DATE 1986
REM DISCID CE0B280F
REM COMMENT ExactAudioCopy v0.99pb5
PERFORMER "群星"
TITLE "回顾篇 [日本天龙虚字首版]"
FILE "群星.-.[回顾篇](1986)[WAV].wav" WAVE
TRACK 01 AUDIO
TITLE "一帘幽梦"
PERFORMER "萧孋珠"
INDEX 01 00:00:00
TRACK 02 AUDIO
TITLE "真情"
PERFORMER "萧孋珠"
INDEX 01 03:58:50
TRACK 03 AUDIO
TITLE "枫红层层"
PERFORMER "萧孋珠"
INDEX 01 07:42:00
TRACK 04 AUDIO
TITLE "诗意"
PERFORMER "萧孋珠"
INDEX 01 10:57:50
TRACK 05 AUDIO
TITLE "诉情"
PERFORMER "萧孋珠"
INDEX 01 13:03:25
TRACK 06 AUDIO
TITLE "大眼睛"
PERFORMER "高凌风"
INDEX 01 16:33:00
TRACK 07 AUDIO
TITLE "姑娘的酒窝"
PERFORMER "高凌风"
INDEX 01 19:15:25
TRACK 08 AUDIO
TITLE "方砖路上"
PERFORMER "高凌风"
INDEX 01 22:20:02
TRACK 09 AUDIO
TITLE "请求"
PERFORMER "高凌风"
INDEX 01 25:40:60
TRACK 10 AUDIO
TITLE "忍耐"
PERFORMER "高凌风"
INDEX 01 28:10:00
TRACK 11 AUDIO
TITLE "寻"
PERFORMER "刘文正"
INDEX 01 30:41:00
TRACK 12 AUDIO
TITLE "菲中你在我身边"
PERFORMER "刘文正"
INDEX 01 35:04:15
TRACK 13 AUDIO
TITLE "绿色大地"
PERFORMER "刘文正"
INDEX 01 38:47:52
TRACK 14 AUDIO
TITLE "小雨打在我身上"
PERFORMER "刘文正"
INDEX 01 41:00:42
TRACK 15 AUDIO
TITLE "如果"
PERFORMER "刘文正"
INDEX 01 43:58:00
群星.1986 - 回顾篇【歌林】日本天龙虚字首版【WAV+CUE】.rar: https://url27.ctfile.com/f/9388027-824540307-9a8ddf?p=559675
(访问密码: 559675)
原文：[链接](https://blog.sina.com.cn/s/blog_1647c7e76010310zz.html)